<svg width="256" height="256" viewBox="0 0 256 256" fill="none" xmlns="http://www.w3.org/2000/svg">
<path d="M211.2 172.7H209.547L208.899 174.221L203.199 187.621L202.4 189.501L204.082 190.659L216.282 199.059L217.598 199.965L218.973 199.152L230.973 192.052L232.732 191.011L232.062 189.081L226.962 174.381L226.379 172.7H224.6H211.2Z" fill="white" stroke="black" stroke-width="5"/>
<path d="M238.47 67.1875L238.845 64.7964L236.467 64.344L195.467 56.544L191.696 55.8267L192.565 59.5656L217.765 168.066L222.67 167.888L238.47 67.1875Z" fill="white" stroke="black" stroke-width="5"/>
<path d="M104.349 93.6831L106.814 90.9755L103.394 89.6654L83.2943 81.9654L81.8181 81.3999L80.6743 82.4912L45.7 115.859V75V71.7846L42.5838 72.5771L19.3838 78.4771L17.5 78.9562V80.9V190.6V193.015L19.9138 193.099L43.1138 193.899L45.7135 193.988L45.7 191.387L45.5055 154.056L56.0511 143.879L69.9985 192.095L70.5207 193.9H72.4H92.9H96.1883L95.3089 190.731L76.7782 123.962L104.349 93.6831Z" fill="white" stroke="black" stroke-width="5"/>
<path d="M115.384 78.4771L113.5 78.9562V80.9V190.6V193.015L115.914 193.099L139.114 193.899L141.714 193.988L141.7 191.387L141.506 154.056L152.051 143.879L165.998 192.095L166.521 193.9H168.4H188.9H192.188L191.309 190.731L172.409 122.631L172.309 122.271L172.108 121.956L141.308 73.6558L140.336 72.1316L138.584 72.5771L115.384 78.4771ZM135 102.397L143.495 122.603L135 130.005V102.397Z" fill="white" stroke="black" stroke-width="5"/>
</svg>
