<svg width="468" height="237" viewBox="0 0 468 237" fill="none" xmlns="http://www.w3.org/2000/svg">
<path d="M230.8 52.5C212.1 52.8 196 68.6 194.8 87.6C193.7 106.7 208.9 123.7 228.7 125.7C248.6 127.7 264.7 111.9 264.7 90.6C264.7 69.2 249.5 52.2 230.8 52.5ZM244.2 92C243.4 101.9 237.2 107.3 233.1 107.7C222.8 108.9 214 99.6 214.6 87.7C215.2 75.8 220 68.4 229.7 68.2C239.4 68 245.3 79.1 244.2 92Z" fill="white"/>
<path d="M304.3 54.4C285.6 54.1 270.4 71.1 270.4 92.5C270.4 113.9 286.5 129.6 306.4 127.6C326.3 125.6 341.5 108.6 340.3 89.5C339.2 70.5 323.1 54.8 304.3 54.4ZM302 109.7C297.9 109.2 291.8 103.8 290.9 94C289.8 81.1 295.7 70 305.4 70.2C315.1 70.4 319.9 77.8 320.5 89.7C321.1 101.5 312.3 110.9 302 109.7Z" fill="white"/>
<path d="M86.5 36.6L66.4 28.9L27.2 66.3V19.6L4 25.5V135.2L27.2 136L27 97.6L41.3 83.8L56.4 136H76.9L58 67.9L86.5 36.6Z" fill="white"/>
<path d="M150.2 49.2L149.8 0L130 5.2L133.2 126.8L152.7 127.5L151.6 64.7C155.9 62.8 170 58.9 170.5 74.4L172.4 96.5L173.7 127.6H194.1L186.4 73.9C183.3 42.5 171.8 42.4 150.2 49.2Z" fill="white"/>
<path d="M367.4 19.6L351.9 13.2V45.3L334.6 44.7L337.9 67.5H351.9L352.9 121.8C352.9 121.8 350.7 141.3 380.5 136.9C380.5 136.9 389.8 134.1 389.5 127.6V106.2C389.5 106.2 383.2 109.9 376.4 109.9C369.6 109.9 369.5 106.6 369.5 106.6L367.7 64.6L389.4 63.4V49.5L367.1 48L367.4 19.6Z" fill="white"/>
<path d="M81.6 49.9L87 64.1C100.5 56 108.1 64.1 108.1 64.1L108 73.2C67.8 80.3 78 117.5 78 117.5C82.1 132.1 95.3 131.6 95.3 131.6H125.4L126 63.9C121.3 32.4 81.6 49.9 81.6 49.9ZM108 118.6C108 118.6 93.4 122.1 91.8 107.9C91.8 107.9 92.1 85.9 108.5 88.3L108 118.6Z" fill="white"/>
<path d="M431.479 185L423 204.67L441.149 217L459 206.578L451.413 185H431.479Z" fill="white"/>
<path d="M468 23.5742L407 12L444.493 173L468 23.5742Z" fill="white"/>
<path d="M0.48 217L24.96 161H43.52L68 217H48.48L30.4 169.96H37.76L19.68 217H0.48ZM15.04 207.24L19.84 193.64H45.6L50.4 207.24H15.04ZM100.853 172.44C104.213 172.44 107.253 173.133 109.973 174.52C112.693 175.853 114.826 177.96 116.373 180.84C117.973 183.72 118.773 187.453 118.773 192.04V217H100.693V195.16C100.693 192.44 100.213 190.52 99.2531 189.4C98.2931 188.227 96.9865 187.64 95.3331 187.64C94.1065 187.64 92.9598 187.933 91.8931 188.52C90.8798 189.053 90.0531 189.96 89.4131 191.24C88.8265 192.52 88.5331 194.253 88.5331 196.44V217H70.4531V173.24H87.6531V186.04L84.2131 182.36C85.9198 179.053 88.2131 176.573 91.0931 174.92C94.0265 173.267 97.2798 172.44 100.853 172.44ZM143.745 217.8C140.012 217.8 136.332 217.4 132.705 216.6C129.078 215.8 126.145 214.76 123.905 213.48L128.865 201.56C130.945 202.787 133.345 203.747 136.065 204.44C138.838 205.133 141.532 205.48 144.145 205.48C146.332 205.48 147.798 205.293 148.545 204.92C149.345 204.547 149.745 204.04 149.745 203.4C149.745 202.76 149.292 202.307 148.385 202.04C147.478 201.72 146.278 201.48 144.785 201.32C143.292 201.16 141.638 200.973 139.825 200.76C138.065 200.493 136.278 200.12 134.465 199.64C132.652 199.16 130.998 198.44 129.505 197.48C128.012 196.52 126.812 195.24 125.905 193.64C124.998 191.987 124.545 189.907 124.545 187.4C124.545 184.627 125.372 182.12 127.025 179.88C128.732 177.64 131.238 175.853 134.545 174.52C137.905 173.133 142.038 172.44 146.945 172.44C150.145 172.44 153.345 172.733 156.545 173.32C159.745 173.907 162.492 174.813 164.785 176.04L159.825 187.96C157.585 186.733 155.372 185.907 153.185 185.48C151.052 185 149.052 184.76 147.185 184.76C144.892 184.76 143.318 184.973 142.465 185.4C141.665 185.827 141.265 186.307 141.265 186.84C141.265 187.48 141.718 187.96 142.625 188.28C143.532 188.6 144.732 188.84 146.225 189C147.718 189.16 149.345 189.373 151.105 189.64C152.918 189.853 154.705 190.227 156.465 190.76C158.278 191.24 159.932 191.96 161.425 192.92C162.918 193.88 164.118 195.187 165.025 196.84C165.932 198.44 166.385 200.493 166.385 203C166.385 205.613 165.558 208.067 163.905 210.36C162.252 212.6 159.745 214.413 156.385 215.8C153.025 217.133 148.812 217.8 143.745 217.8ZM181.798 217L166.598 173.24H183.718L195.238 208.76H186.998L199.078 173.24H214.438L225.958 208.76H217.958L229.878 173.24H245.718L230.518 217H212.918L203.718 188.84H208.998L199.398 217H181.798ZM272.191 217.8C266.858 217.8 262.191 216.813 258.191 214.84C254.245 212.867 251.178 210.173 248.991 206.76C246.805 203.293 245.711 199.4 245.711 195.08C245.711 190.653 246.778 186.733 248.911 183.32C251.098 179.907 254.058 177.24 257.791 175.32C261.578 173.4 265.818 172.44 270.511 172.44C274.831 172.44 278.805 173.293 282.431 175C286.111 176.707 289.045 179.24 291.231 182.6C293.471 185.96 294.591 190.12 294.591 195.08C294.591 195.72 294.565 196.44 294.511 197.24C294.458 197.987 294.405 198.68 294.351 199.32H260.671V190.6H284.751L277.951 192.92C277.951 191.213 277.631 189.773 276.991 188.6C276.405 187.373 275.578 186.44 274.511 185.8C273.445 185.107 272.165 184.76 270.671 184.76C269.178 184.76 267.871 185.107 266.751 185.8C265.685 186.44 264.858 187.373 264.271 188.6C263.685 189.773 263.391 191.213 263.391 192.92V195.64C263.391 197.507 263.765 199.107 264.511 200.44C265.258 201.773 266.325 202.787 267.711 203.48C269.098 204.12 270.778 204.44 272.751 204.44C274.778 204.44 276.431 204.173 277.711 203.64C279.045 203.107 280.431 202.307 281.871 201.24L291.311 210.76C289.178 213.053 286.538 214.813 283.391 216.04C280.298 217.213 276.565 217.8 272.191 217.8ZM300.297 217V173.24H317.497V186.44L314.697 182.68C316.03 179.267 318.164 176.707 321.097 175C324.03 173.293 327.55 172.44 331.657 172.44V188.44C330.857 188.333 330.137 188.253 329.497 188.2C328.91 188.147 328.297 188.12 327.657 188.12C324.937 188.12 322.697 188.84 320.937 190.28C319.23 191.667 318.377 194.093 318.377 197.56V217H300.297ZM353.901 217.8C350.168 217.8 346.488 217.4 342.861 216.6C339.235 215.8 336.301 214.76 334.061 213.48L339.021 201.56C341.101 202.787 343.501 203.747 346.221 204.44C348.995 205.133 351.688 205.48 354.301 205.48C356.488 205.48 357.955 205.293 358.701 204.92C359.501 204.547 359.901 204.04 359.901 203.4C359.901 202.76 359.448 202.307 358.541 202.04C357.635 201.72 356.435 201.48 354.941 201.32C353.448 201.16 351.795 200.973 349.981 200.76C348.221 200.493 346.435 200.12 344.621 199.64C342.808 199.16 341.155 198.44 339.661 197.48C338.168 196.52 336.968 195.24 336.061 193.64C335.155 191.987 334.701 189.907 334.701 187.4C334.701 184.627 335.528 182.12 337.181 179.88C338.888 177.64 341.395 175.853 344.701 174.52C348.061 173.133 352.195 172.44 357.101 172.44C360.301 172.44 363.501 172.733 366.701 173.32C369.901 173.907 372.648 174.813 374.941 176.04L369.981 187.96C367.741 186.733 365.528 185.907 363.341 185.48C361.208 185 359.208 184.76 357.341 184.76C355.048 184.76 353.475 184.973 352.621 185.4C351.821 185.827 351.421 186.307 351.421 186.84C351.421 187.48 351.875 187.96 352.781 188.28C353.688 188.6 354.888 188.84 356.381 189C357.875 189.16 359.501 189.373 361.261 189.64C363.075 189.853 364.861 190.227 366.621 190.76C368.435 191.24 370.088 191.96 371.581 192.92C373.075 193.88 374.275 195.187 375.181 196.84C376.088 198.44 376.541 200.493 376.541 203C376.541 205.613 375.715 208.067 374.061 210.36C372.408 212.6 369.901 214.413 366.541 215.8C363.181 217.133 358.968 217.8 353.901 217.8Z" fill="white"/>
</svg>
